<svg xmlns="http://www.w3.org/2000/svg" width="840" height="1050" viewBox="0 0 840 1050">
  <rect width="840" height="1050" fill="#15120e"/>
  <text x="24" y="62" fill="#a89f93" font-size="28" font-weight="800" font-family="Arial, sans-serif">전개 4 / 6</text>
  <rect x="160" y="42" width="650" height="7" rx="4" fill="#29241c"/>
  <rect x="160" y="42" width="460" height="7" rx="4" fill="#ff831a"/>
  <line x1="38" y1="110" x2="38" y2="960" stroke="#41392d" stroke-width="6"/>
  <circle cx="38" cy="110" r="15" fill="#15120e" stroke="#4a4033" stroke-width="5"/>
  <text x="78" y="116" fill="#aaa196" font-size="25" font-weight="800" font-family="Arial, sans-serif">시나리오 전개 1</text>
  <rect x="80" y="150" width="720" height="230" rx="34" fill="#1a1712" stroke="#393126" stroke-width="2"/>
  <text x="110" y="210" fill="#d9d0c4" font-size="30" font-family="Arial, sans-serif">6개월 더 준비하기로 마음먹고,</text>
  <text x="110" y="260" fill="#d9d0c4" font-size="30" font-family="Arial, sans-serif">퇴근 후 토이프로젝트를 시작해요.</text>
  <text x="110" y="310" fill="#d9d0c4" font-size="30" font-family="Arial, sans-serif">처음엔 의미가 있나 싶지만,</text>
  <text x="110" y="360" fill="#d9d0c4" font-size="30" font-family="Arial, sans-serif">결과물이 오히려 단단해요.</text>
  <circle cx="38" cy="450" r="16" fill="#ff831a"/>
  <text x="78" y="460" fill="#ff831a" font-size="30" font-weight="800" font-family="Arial, sans-serif">가장 먼저 무엇을 할까요?</text>
  <rect x="80" y="500" width="720" height="90" rx="20" fill="#252019"/>
  <circle cx="128" cy="545" r="16" fill="none" stroke="#51483a" stroke-width="4"/>
  <text x="166" y="555" fill="#f1eadf" font-size="28" font-family="Arial, sans-serif">포트폴리오 사이트부터 만든다</text>
  <rect x="80" y="620" width="720" height="96" rx="20" fill="#4b2a12" stroke="#ff831a" stroke-width="4"/>
  <circle cx="128" cy="668" r="18" fill="#ff831a"/>
  <text x="128" y="678" fill="#fff" text-anchor="middle" font-size="24" font-weight="800" font-family="Arial, sans-serif">✓</text>
  <text x="166" y="678" fill="#ff831a" font-size="28" font-weight="800" font-family="Arial, sans-serif">지인에게 첫 프로젝트를 부탁한다</text>
  <rect x="80" y="746" width="720" height="90" rx="20" fill="#252019"/>
  <circle cx="128" cy="791" r="16" fill="none" stroke="#51483a" stroke-width="4"/>
  <text x="166" y="801" fill="#f1eadf" font-size="28" font-family="Arial, sans-serif">코딩테스트 스터디에 다시 들어간다</text>
  <circle cx="38" cy="950" r="15" fill="#15120e" stroke="#4a4033" stroke-width="5"/>
  <text x="78" y="960" fill="#aaa196" font-size="25" font-weight="800" font-family="Arial, sans-serif">시나리오 전개 2</text>
</svg>
